<svg width="64" height="64" viewBox="0 0 64 64" fill="none" xmlns="http://www.w3.org/2000/svg">
<g clip-path="url(#clip0_291_2)">
<path d="M0 0C21.12 0 42.24 0 64 0C64 21.12 64 42.24 64 64C42.88 64 21.76 64 0 64C0 42.88 0 21.76 0 0Z" fill="black"/>
<path d="M20 19C22.31 19.66 24.62 20.32 27 21C27 28.26 27 35.52 27 43C24.69 43.66 22.38 44.32 20 45C20 36.42 20 27.84 20 19Z" fill="#FDFDFD"/>
<path d="M44 19C44 27.58 44 36.16 44 45C41.69 44.34 39.38 43.68 37 43C37 35.74 37 28.48 37 21C43 19 43 19 44 19Z" fill="#F9F9F9"/>
<path d="M38 32C39.65 32 41.3 32 43 32C43.33 36.29 43.66 40.58 44 45C43.34 44.67 42.68 44.34 42 44C42 43.34 42 42.68 42 42C40.68 42 39.36 42 38 42C38 38.7 38 35.4 38 32Z" fill="#D6D6D6"/>
<path d="M21 32C22.65 32 24.3 32 26 32C26 35.63 26 39.26 26 43C24.35 43 22.7 43 21 43C21 39.37 21 35.74 21 32Z" fill="#D9D9D9"/>
<path d="M21 20C23.475 20.495 23.475 20.495 26 21C26 23.97 26 26.94 26 30C24.35 29.67 22.7 29.34 21 29C21 26.03 21 23.06 21 20Z" fill="#E2E2E2"/>
<path d="M29 29C30.98 29 32.96 29 35 29C35 30.98 35 32.96 35 35C33.02 35 31.04 35 29 35C29 33.02 29 31.04 29 29Z" fill="#D3D3D3"/>
<path d="M39 20C40.32 20 41.64 20 43 20C43 22.31 43 24.62 43 27C41.35 27 39.7 27 38 27C37.9575 25.0005 37.9592 22.9996 38 21C38.33 20.67 38.66 20.34 39 20Z" fill="#D7D7D7"/>
<path d="M21 32C22.65 32 24.3 32 26 32C26 33.65 26 35.3 26 37C24.35 36.67 22.7 36.34 21 36C21 34.68 21 33.36 21 32Z" fill="#A5A4A4"/>
<path d="M38 32C39.65 32 41.3 32 43 32C42.67 33.65 42.34 35.3 42 37C40.68 36.67 39.36 36.34 38 36C38 34.68 38 33.36 38 32Z" fill="#A1A0A0"/>
<path d="M21 20C23.475 20.495 23.475 20.495 26 21C26 21.99 26 22.98 26 24C24.35 24 22.7 24 21 24C21 22.68 21 21.36 21 20Z" fill="#D4D4D4"/>
</g>
<defs>
<clipPath id="clip0_291_2">
<rect width="64" height="64" fill="white"/>
</clipPath>
</defs>
</svg>
