<svg width="340" height="296" viewBox="0 0 340 296" fill="none" xmlns="http://www.w3.org/2000/svg">
<g clip-path="url(#clip0_291_14)">
<path fill-rule="evenodd" clip-rule="evenodd" d="M62.1503 1.45019L0.260303 131.45C0.0247938 131.934 -0.0498376 132.48 0.047323 133.009C0.144484 133.538 0.408339 134.022 0.800303 134.39L167.95 294.56C168.425 295.016 169.057 295.27 169.715 295.27C170.373 295.27 171.006 295.016 171.48 294.56L338.63 134.4C339.022 134.032 339.286 133.548 339.383 133.019C339.48 132.49 339.406 131.944 339.17 131.46L277.28 1.46019C277.081 1.0236 276.759 0.653747 276.355 0.394842C275.951 0.135937 275.48 -0.00107099 275 0.000193524H64.4503C63.9679 -0.0058081 63.4941 0.127899 63.0859 0.385186C62.6778 0.642473 62.3529 1.01235 62.1503 1.45019Z" fill="#50AF95"/>
<path fill-rule="evenodd" clip-rule="evenodd" d="M191.19 144.8C189.99 144.89 183.79 145.26 169.96 145.26C158.96 145.26 151.15 144.93 148.41 144.8C105.9 142.93 74.1703 135.53 74.1703 126.67C74.1703 117.81 105.9 110.42 148.41 108.52V137.43C151.19 137.63 159.15 138.1 170.15 138.1C183.35 138.1 189.96 137.55 191.15 137.44V108.54C233.57 110.43 265.23 117.83 265.23 126.67C265.23 135.51 233.58 142.91 191.15 144.79L191.19 144.8ZM191.19 105.55V79.6805H250.39V40.2305H89.2104V79.6805H148.4V105.54C100.29 107.75 64.1104 117.28 64.1104 128.7C64.1104 140.12 100.29 149.64 148.4 151.86V234.76H191.18V151.83C239.18 149.62 275.3 140.1 275.3 128.69C275.3 117.28 239.21 107.76 191.18 105.54L191.19 105.55Z" fill="white"/>
</g>
<defs>
<clipPath id="clip0_291_14">
<rect width="339.43" height="295.27" fill="white"/>
</clipPath>
</defs>
</svg>
